<svg width="81" height="90" viewBox="0 0 81 90" fill="none" xmlns="http://www.w3.org/2000/svg">
<g filter="url(#filter0_d_1_705)">
<path fill-rule="evenodd" clip-rule="evenodd" d="M40.4999 71.0001C52.4477 71.0001 62.1332 60.9862 62.1332 48.6334C62.1332 36.2806 52.4477 26.2667 40.4999 26.2667C28.5521 26.2667 18.8666 36.2806 18.8666 48.6334C18.8666 60.9862 28.5521 71.0001 40.4999 71.0001Z" fill="black" fill-opacity="0.01"/>
</g>
<g filter="url(#filter1_d_1_705)">
<path fill-rule="evenodd" clip-rule="evenodd" d="M40.5 71C56.7924 71 70 57.3447 70 40.5C70 23.6553 56.7924 10 40.5 10C24.2076 10 11 23.6553 11 40.5C11 57.3447 24.2076 71 40.5 71Z" fill="#2196F3"/>
<path d="M68 40.5C68 56.3035 55.6255 69 40.5 69C25.3745 69 13 56.3035 13 40.5C13 24.6965 25.3745 12 40.5 12C55.6255 12 68 24.6965 68 40.5Z" stroke="#42A5F5" stroke-width="4"/>
</g>
<mask id="mask0_1_705" style="mask-type:alpha" maskUnits="userSpaceOnUse" x="11" y="10" width="59" height="61">
<path fill-rule="evenodd" clip-rule="evenodd" d="M40.5 71C56.7924 71 70 57.3447 70 40.5C70 23.6553 56.7924 10 40.5 10C24.2076 10 11 23.6553 11 40.5C11 57.3447 24.2076 71 40.5 71Z" fill="white"/>
</mask>
<g mask="url(#mask0_1_705)">
<path d="M13.6688 33.2563H66.5938" stroke="#42A5F5" stroke-width="4" stroke-linecap="square"/>
<path d="M13.6688 49.2688H66.5938" stroke="#42A5F5" stroke-width="4" stroke-linecap="square"/>
<path d="M39.7625 14.575C39.7625 14.575 29.9663 26.3454 30.1784 41.2625C30.3905 56.1795 39.7625 66.425 39.7625 66.425" stroke="#42A5F5" stroke-width="4" stroke-linecap="round" stroke-linejoin="round"/>
<path d="M40.5 14.575C40.5 14.575 50.2962 26.3454 50.0841 41.2625C49.872 56.1795 40.5 66.425 40.5 66.425" stroke="#42A5F5" stroke-width="4" stroke-linecap="round" stroke-linejoin="round"/>
</g>
<path fill-rule="evenodd" clip-rule="evenodd" d="M50.5176 29.3491C50.7189 29.229 50.9409 29.1543 51.1721 29.1393C52.1782 29.0743 55.0529 28.992 55.6775 30.1105C56.3021 31.2291 54.7949 33.7611 54.2373 34.6289C54.1092 34.8282 53.9358 34.9894 53.7347 35.1095L47.7672 38.6716L48.597 56.0561C48.6086 56.2999 48.4874 56.5321 48.2822 56.6591L47.0639 57.4135C46.899 57.5156 46.6994 57.5375 46.5196 57.4733L45.5878 57.1406C45.4339 57.0857 45.3072 56.9722 45.2337 56.8234L38.8808 43.9761L32.618 47.7145L31.9436 52.4561C31.8964 52.788 31.6139 53.0341 31.2876 53.0277L30.8064 53.0183C30.5599 53.0135 30.34 52.864 30.2408 52.634L28.4779 48.544C27.2683 48.584 26.1326 48.4611 25.8279 47.9155C25.5236 47.3704 25.9889 46.2971 26.6281 45.2387L24.103 41.6428C23.9599 41.439 23.9447 41.1674 24.0639 40.9442L24.2966 40.5086C24.4544 40.2132 24.8018 40.0834 25.1034 40.2071L29.3857 41.9632L35.6599 38.218L28.126 26.1874C28.0381 26.0471 28.0064 25.8769 28.0373 25.7117L28.2246 24.711C28.2607 24.5179 28.3788 24.3501 28.5467 24.2536L29.7878 23.5399C29.9968 23.4197 30.252 23.4273 30.4503 23.5596L44.5089 32.9358L50.5176 29.3491Z" fill="white"/>
<mask id="mask1_1_705" style="mask-type:alpha" maskUnits="userSpaceOnUse" x="23" y="23" width="33" height="35">
<path fill-rule="evenodd" clip-rule="evenodd" d="M50.5176 29.3491C50.7189 29.229 50.9409 29.1543 51.1721 29.1393C52.1782 29.0743 55.0529 28.992 55.6775 30.1105C56.3021 31.2291 54.7949 33.7611 54.2373 34.6289C54.1092 34.8282 53.9358 34.9894 53.7347 35.1095L47.7672 38.6716L48.597 56.0561C48.6086 56.2999 48.4874 56.5321 48.2822 56.6591L47.0639 57.4135C46.899 57.5156 46.6994 57.5375 46.5196 57.4733L45.5878 57.1406C45.4339 57.0857 45.3072 56.9722 45.2337 56.8234L38.8808 43.9761L32.618 47.7145L31.9436 52.4561C31.8964 52.788 31.6139 53.0341 31.2876 53.0277L30.8064 53.0183C30.5599 53.0135 30.34 52.864 30.2408 52.634L28.4779 48.544C27.2683 48.584 26.1326 48.4611 25.8279 47.9155C25.5236 47.3704 25.9889 46.2971 26.6281 45.2387L24.103 41.6428C23.9599 41.439 23.9447 41.1674 24.0639 40.9442L24.2966 40.5086C24.4544 40.2132 24.8018 40.0834 25.1034 40.2071L29.3857 41.9632L35.6599 38.218L28.126 26.1874C28.0381 26.0471 28.0064 25.8769 28.0373 25.7117L28.2246 24.711C28.2607 24.5179 28.3788 24.3501 28.5467 24.2536L29.7878 23.5399C29.9968 23.4197 30.252 23.4273 30.4503 23.5596L44.5089 32.9358L50.5176 29.3491Z" fill="white"/>
</mask>
<g mask="url(#mask1_1_705)">
<rect width="1.31957" height="12.3063" transform="matrix(0.487553 0.873093 -0.858657 0.512551 44.9604 31.1302)" fill="#EBECF2"/>
<path fill-rule="evenodd" clip-rule="evenodd" d="M48.2822 56.6592C48.4874 56.5321 48.6086 56.2999 48.597 56.0561L47.7401 38.1033L38.6576 43.5248L45.2336 56.8234C45.3072 56.9722 45.4339 57.0857 45.5878 57.1406L46.5196 57.4733C46.6994 57.5375 46.899 57.5156 47.0638 57.4136L48.2822 56.6592Z" fill="#DEE1E3"/>
<path opacity="0.4" fill-rule="evenodd" clip-rule="evenodd" d="M28.5393 48.4314L28.4518 48.4836L30.2408 52.634C30.34 52.8641 30.5599 53.0135 30.8064 53.0184L31.2876 53.0278C31.6139 53.0342 31.8964 52.7881 31.9436 52.4562L32.656 47.4473L32.206 47.716C32.0616 47.8021 31.9069 47.8664 31.7444 47.9039C31.2 48.0294 29.8315 48.3237 28.5393 48.4314Z" fill="#DEE1E3"/>
<path fill-rule="evenodd" clip-rule="evenodd" d="M38.7774 43.7671L47.7546 38.4084L47.8522 40.4533L40.4567 47.1631L38.7774 43.7671Z" fill="#C5C6CC"/>
<path fill-rule="evenodd" clip-rule="evenodd" d="M56.7076 33.3349L27.4132 50.8214C27.4132 50.8214 26.5488 49.2062 25.828 47.9155C25.8193 47.8998 25.811 47.884 25.8032 47.868C27.1322 47.9674 29.8081 47.8557 32.4034 46.3065L52.6841 34.2005C54.9375 32.8554 55.4895 31.1135 55.7935 30.3647C56.264 31.6712 56.7076 33.3349 56.7076 33.3349Z" fill="#DEE1E3"/>
</g>
<defs>
<filter id="filter0_d_1_705" x="7.86658" y="23.2667" width="65.2667" height="66.7333" filterUnits="userSpaceOnUse" color-interpolation-filters="sRGB">
<feFlood flood-opacity="0" result="BackgroundImageFix"/>
<feColorMatrix in="SourceAlpha" type="matrix" values="0 0 0 0 0 0 0 0 0 0 0 0 0 0 0 0 0 0 127 0" result="hardAlpha"/>
<feOffset dy="8"/>
<feGaussianBlur stdDeviation="5.5"/>
<feColorMatrix type="matrix" values="0 0 0 0 0.215686 0 0 0 0 0.407843 0 0 0 0 0.556863 0 0 0 0.25 0"/>
<feBlend mode="normal" in2="BackgroundImageFix" result="effect1_dropShadow_1_705"/>
<feBlend mode="normal" in="SourceGraphic" in2="effect1_dropShadow_1_705" result="shape"/>
</filter>
<filter id="filter1_d_1_705" x="0" y="0" width="81" height="83" filterUnits="userSpaceOnUse" color-interpolation-filters="sRGB">
<feFlood flood-opacity="0" result="BackgroundImageFix"/>
<feColorMatrix in="SourceAlpha" type="matrix" values="0 0 0 0 0 0 0 0 0 0 0 0 0 0 0 0 0 0 127 0" result="hardAlpha"/>
<feOffset dy="1"/>
<feGaussianBlur stdDeviation="5.5"/>
<feColorMatrix type="matrix" values="0 0 0 0 0.215686 0 0 0 0 0.407843 0 0 0 0 0.556863 0 0 0 0.3 0"/>
<feBlend mode="normal" in2="BackgroundImageFix" result="effect1_dropShadow_1_705"/>
<feBlend mode="normal" in="SourceGraphic" in2="effect1_dropShadow_1_705" result="shape"/>
</filter>
</defs>
</svg>
